<?xml version="1.0" encoding="utf-8"?>
<!-- Generator: Adobe Illustrator 24.0.2, SVG Export Plug-In . SVG Version: 6.00 Build 0)  -->
<svg version="1.1" id="Слой_1" xmlns="http://www.w3.org/2000/svg" xmlns:xlink="http://www.w3.org/1999/xlink" x="0px" y="0px"
	 viewBox="0 0 2048 2048" style="enable-background:new 0 0 2048 2048;" xml:space="preserve">
<style type="text/css">
	.st0{fill:#1A1A1A;}
	.st1{fill:#F91E1E;}
</style>
<circle class="st0" cx="1025" cy="1025" r="1020"/>
<g>
	<g>
		<path class="st1" d="M979.35,804.34c0,42.23-8.07,81.97-24.2,119.23c-16.13,37.26-38.09,69.76-65.84,97.51
			c-27.77,27.77-60.14,49.7-97.16,65.84s-76.65,24.2-118.88,24.2h-102.5c-14.24,0-27.52,2.62-39.86,7.84
			c-12.34,5.22-23.15,12.46-32.39,21.71c-9.24,9.26-16.49,20.05-21.71,32.39c-5.22,12.34-7.82,25.63-7.82,39.86v101.78H951.6V1519
			H264.69v-306.08c0-42.23,8.07-81.97,24.2-119.23c16.13-37.24,38.07-69.74,65.84-97.51c27.77-27.77,60.16-49.6,97.18-65.49
			s76.63-23.85,118.86-23.85h102.5c14.24,0,27.52-2.6,39.86-7.82s23.13-12.46,32.39-21.72c9.24-9.24,16.49-20.16,21.71-32.74
			c5.22-12.57,7.84-25.98,7.84-40.21s-2.62-27.52-7.84-39.86c-5.22-12.34-12.46-23.13-21.71-32.39
			c-9.26-9.24-20.05-16.49-32.39-21.71s-25.63-7.84-39.86-7.84H308.82V498.26h364.45c42.23,0,81.87,8.07,118.88,24.2
			c37.01,16.13,69.39,38.09,97.16,65.84c27.75,27.77,49.7,60.14,65.84,97.16C971.28,722.47,979.35,762.1,979.35,804.34z"/>
		<path class="st1" d="M1820,1212.92c0,42.23-8.07,81.85-24.2,118.86s-38.09,69.41-65.84,97.18c-27.77,27.77-60.14,49.7-97.16,65.84
			c-37.01,16.13-76.65,24.2-118.88,24.2h-408.58v-204.3h408.58c14.24,0,27.52-2.6,39.86-7.82c12.34-5.22,23.13-12.46,32.39-21.71
			c9.24-9.24,16.49-20.05,21.71-32.39c5.22-12.34,7.84-25.63,7.84-39.86c0-14.24-2.62-27.52-7.84-39.86
			c-5.22-12.34-12.46-23.13-21.71-32.39c-9.26-9.24-20.05-16.49-32.39-21.71s-25.63-7.84-39.86-7.84h-278.31V906.84h278.31
			c14.24,0,27.52-2.6,39.86-7.82s23.13-12.46,32.39-21.72c9.24-9.24,16.49-20.16,21.71-32.74c5.22-12.57,7.84-25.98,7.84-40.21
			s-2.62-27.52-7.84-39.86c-5.22-12.34-12.46-23.13-21.71-32.39c-9.26-9.24-20.05-16.49-32.39-21.71s-25.63-7.84-39.86-7.84h-408.58
			V498.26h408.58c42.23,0,81.87,8.07,118.88,24.2c37.01,16.13,69.39,38.09,97.16,65.84c27.75,27.77,49.7,60.14,65.84,97.16
			c16.13,37.01,24.2,76.65,24.2,118.88c0,37.49-6.89,73.91-20.65,109.27s-33.22,67.03-58.35,95.01
			c25.13,28.02,44.59,59.69,58.35,95.03C1813.11,1139.01,1820,1175.43,1820,1212.92z"/>
	</g>
</g>
</svg>
