<svg id="Capa_1" enable-background="new 0 0 512 512" height="512" viewBox="0 0 512 512" width="512" xmlns="http://www.w3.org/2000/svg"><g><path d="m31 120h45v30h-45z" fill="#474f54"/><path d="m436 120h45v30h-45z" fill="#32393f"/><path d="m256 361h-92.725v30h92.725 92.725v-30z" fill="#474f54"/><path d="m256 361h92.725v30h-92.725z" fill="#32393f"/><path d="m163.1 444.163-28.711-8.672 40.927-136.439 28.711 8.672z" fill="#474f54"/><path d="m361.483 512-53.671-204.862 29.033-7.5 53.672 204.862z" fill="#32393f"/><path d="m136 512c-24.814 0-45-20.186-45-45s20.186-45 45-45 45 20.186 45 45-20.186 45-45 45z" fill="#474f54"/><circle cx="136" cy="467" fill="#f0f7ff" r="15"/><path d="m256 105h-195v30c0 107.52 87.48 196 195 196s195-88.48 195-196v-30z" fill="#ff6c6c"/><path d="m451 135v-30h-195v226c107.52 0 195-88.48 195-196z" fill="#e63950"/><ellipse cx="256" cy="105" fill="#575f64" rx="195" ry="105"/><path d="m451 105c0-58.872-85.649-105-195-105v210c109.351 0 195-46.128 195-105z" fill="#474f54"/><ellipse cx="256" cy="105" fill="#474f54" rx="165" ry="75"/><path d="m421 105c0-35.479-67.764-75-165-75v150c97.236 0 165-39.521 165-75z" fill="#32393f"/><path d="m181 20.127h30v169.746h-30z" fill="#575f64"/><path d="m121 37.91h30v134.18h-30z" fill="#575f64"/><path d="m301 20.127h30v169.746h-30z" fill="#474f54"/><path d="m361 37.91h30v134.18h-30z" fill="#474f54"/><path d="m256 15h-15v180h15 15v-180z" fill="#575f64"/><path d="m256 15h15v180h-15z" fill="#474f54"/></g></svg>