<svg height="512" viewBox="0 0 128 128" width="512" xmlns="http://www.w3.org/2000/svg"><g><path d="m30.868 37.84a8.21 8.21 0 0 0 -8.21 8.21 8.209 8.209 0 0 0 8.21 8.21h64.615v-16.42z" fill="#3cc581"/><circle cx="62.112" cy="43.97" fill="#fccf23" r="23.095"/><path d="m63.862 42.413v-9.234a4.7 4.7 0 0 1 2.943 4.347 1.75 1.75 0 1 0 3.5 0 8.2 8.2 0 0 0 -6.443-8v-1.892a1.75 1.75 0 0 0 -3.5 0v1.892a8.188 8.188 0 0 0 0 16v9.234a4.694 4.694 0 0 1 -2.944-4.348 1.75 1.75 0 0 0 -3.5 0 8.205 8.205 0 0 0 6.444 8v1.892a1.75 1.75 0 0 0 3.5 0v-1.889a8.189 8.189 0 0 0 0-16zm-6.444-4.887a4.694 4.694 0 0 1 2.944-4.347v8.7a4.7 4.7 0 0 1 -2.944-4.353zm6.444 17.235v-8.695a4.683 4.683 0 0 1 0 8.7z" fill="#fca40b"/><path d="m22.8 47.534h-.14v51a8.586 8.586 0 0 0 8.586 8.587h70.322v-52.861h-70.7a8.208 8.208 0 0 1 -8.068-6.726z" fill="#4ce797"/><path d="m91 72.577a7.937 7.937 0 0 0 -7.936 7.936 7.936 7.936 0 0 0 7.936 7.936h14.338v-15.872z" fill="#fccf23"/><path d="m90.822 82.923a2.41 2.41 0 1 1 2.409-2.409 2.412 2.412 0 0 1 -2.409 2.409z" fill="#fca40b"/></g></svg>